<?xml version="1.0" encoding="utf-8"?>
<!-- Generator: Adobe Illustrator 25.3.1, SVG Export Plug-In . SVG Version: 6.00 Build 0)  -->
<svg version="1.1" id="Layer_1" xmlns="http://www.w3.org/2000/svg" xmlns:xlink="http://www.w3.org/1999/xlink" x="0px" y="0px"
	 viewBox="0 0 64 64" style="enable-background:new 0 0 64 64;" xml:space="preserve">
<style type="text/css">
	.st0{fill:#FFFFFF;}
	.st1{fill:#00ADEE;}
</style>
<g id="Layer_2_1_">
	<g id="Layer_1-2">
		<path class="st0" d="M51.1,63.9c-4.5,0.2-8.1-1.8-10.6-5.6c-3.4-5.1-10.5-6-14.9-2.2c-0.8,0.7-1.5,1.6-2.2,2.5
			c-4.4,5.8-12.1,7.2-17.9,2.9c-5.1-3.7-6.8-10.1-3.9-16.1c6.4-13,12.8-26,19.3-38.9c2.6-5.2,9.5-7.8,15.1-5.9
			c3.7,1.3,6.2,3.7,7.9,7.1c6,12.1,12,24.3,18,36.4c1.5,3,2.5,6,1.8,9.5C62.4,59.1,57.5,64.3,51.1,63.9z"/>
	</g>
</g>
<g id="Layer_2_2_">
	<g id="Layer_1-2_1_">
		<path class="st1" d="M51.1,63.9c-4.5,0.2-8.1-1.8-10.6-5.6c-3.4-5.1-10.5-6-14.9-2.2c-0.8,0.7-1.5,1.6-2.2,2.5
			c-4.4,5.8-12.1,7.2-17.9,2.9c-5.1-3.7-6.8-10.1-3.9-16.1c6.4-13,12.8-26,19.3-38.9c2.6-5.2,9.5-7.8,15.1-5.9
			c3.7,1.3,6.2,3.7,7.9,7.1c6,12.1,12,24.3,18,36.4c1.5,3,2.5,6,1.8,9.5C62.4,59.1,57.5,64.3,51.1,63.9z M42.6,12.3
			c-0.1,0.8-0.1,1.4-0.2,2.1c-1.2,5.8-6.4,9.2-12.2,8c-2.5-0.5-5-0.9-7.6-0.7c-3.6,0.2-6.8,1.4-8.6,4.8C11,32,8.5,37.6,5.7,43.2
			c0,0.2-0.1,0.3-0.1,0.5c0.4,0.1,0.6-0.1,0.8-0.2c4.3-3.1,9.1-3.3,14-2.1c9.1,2.2,16.4,7.3,21.8,14.9c3.2,4.4,7.4,5.9,12,4.4
			c5.1-1.7,8.3-8,6.2-12.7c-1.3-3-2.8-5.8-4.2-8.7c-4.2-8.4-8.4-16.9-12.6-25.3C43.4,13.3,43.3,12.7,42.6,12.3z"/>
	</g>
</g>
</svg>
